<svg id="visual" viewBox="0 0 900 600" width="900" height="600" xmlns="http://www.w3.org/2000/svg" xmlns:xlink="http://www.w3.org/1999/xlink" version="1.1"><rect x="0" y="0" width="900" height="600" fill="#002233"></rect><path d="M0 325L10.7 340C21.3 355 42.7 385 64.2 384.8C85.7 384.7 107.3 354.3 128.8 356.8C150.3 359.3 171.7 394.7 193 406.7C214.3 418.7 235.7 407.3 257 406.3C278.3 405.3 299.7 414.7 321.2 410.2C342.7 405.7 364.3 387.3 385.8 395C407.3 402.7 428.7 436.3 450 449.2C471.3 462 492.7 454 514.2 435.7C535.7 417.3 557.3 388.7 578.8 387.8C600.3 387 621.7 414 643 408.5C664.3 403 685.7 365 707 350C728.3 335 749.7 343 771.2 353.7C792.7 364.3 814.3 377.7 835.8 377.2C857.3 376.7 878.7 362.3 889.3 355.2L900 348L900 601L889.3 601C878.7 601 857.3 601 835.8 601C814.3 601 792.7 601 771.2 601C749.7 601 728.3 601 707 601C685.7 601 664.3 601 643 601C621.7 601 600.3 601 578.8 601C557.3 601 535.7 601 514.2 601C492.7 601 471.3 601 450 601C428.7 601 407.3 601 385.8 601C364.3 601 342.7 601 321.2 601C299.7 601 278.3 601 257 601C235.7 601 214.3 601 193 601C171.7 601 150.3 601 128.8 601C107.3 601 85.7 601 64.2 601C42.7 601 21.3 601 10.7 601L0 601Z" fill="#0066FF" stroke-linecap="round" stroke-linejoin="miter"></path></svg>